<mxfile host="app.diagrams.net" modified="2024-02-15T10:54:57.125Z" agent="Mozilla/5.0 (Windows NT 10.0; Win64; x64) AppleWebKit/537.36 (KHTML, like Gecko) Chrome/121.0.0.0 Safari/537.36" version="22.1.18" etag="kTXZg_G5wOpxbNoiR2-L" type="github">
  <diagram name="Page-1" id="xo9Mdksl23AMgTvWWdH8">
    <mxGraphModel>
      <root>
        <mxCell id="0" />
        <mxCell id="1" parent="0" />
      </root>
    </mxGraphModel>
  </diagram>
</mxfile>
